<?xml version="1.0" standalone="no"?>
<!DOCTYPE svg PUBLIC "-//W3C//DTD SVG 20010904//EN"
 "http://www.w3.org/TR/2001/REC-SVG-20010904/DTD/svg10.dtd">
<svg version="1.0" xmlns="http://www.w3.org/2000/svg"
 width="250.000000pt" height="250.000000pt" viewBox="0 0 250.000000 250.000000"
 preserveAspectRatio="xMidYMid meet">
<metadata>
Created by potrace 1.11, written by Peter Selinger 2001-2013
</metadata>
<g transform="translate(0.000000,250.000000) scale(0.100000,-0.100000)"
fill="#000000" stroke="none">
<path d="M1290 2289 c0 -6 -7 -9 -15 -5 -8 3 -15 2 -15 -2 0 -4 -16 -8 -35 -9
-58 -3 -75 -7 -75 -15 0 -4 -7 -5 -15 -2 -8 4 -26 -1 -40 -10 -13 -9 -33 -16
-44 -16 -11 0 -23 -4 -26 -10 -3 -5 -25 -14 -48 -20 -23 -6 -51 -15 -62 -20
-11 -4 -56 -20 -100 -35 -44 -14 -90 -33 -102 -41 -13 -8 -23 -11 -23 -8 0 4
-9 -1 -21 -12 -12 -10 -23 -18 -25 -16 -4 2 -50 -20 -89 -45 -11 -7 -31 -17
-45 -23 -13 -6 -27 -14 -30 -18 -6 -9 -35 -27 -77 -48 -18 -9 -49 -34 -70 -55
-21 -21 -41 -39 -44 -39 -20 0 -169 -174 -169 -197 0 -6 -9 -20 -20 -33 -11
-13 -20 -29 -20 -37 0 -24 -1 -28 -22 -60 -14 -24 -16 -33 -6 -33 11 0 11 -2
0 -9 -8 -4 -13 -10 -11 -12 1 -2 -3 -21 -10 -41 -7 -21 -10 -42 -7 -47 4 -5 2
-12 -3 -15 -5 -3 -5 -21 -1 -41 5 -21 4 -35 -1 -35 -6 0 -6 -8 0 -18 7 -13 7
-22 0 -29 -8 -8 -7 -13 0 -17 6 -4 11 -18 11 -32 0 -13 5 -24 10 -24 6 0 10
-27 10 -60 0 -33 3 -60 8 -60 4 0 8 -11 8 -25 1 -14 10 -38 20 -53 10 -15 17
-34 16 -43 -2 -9 4 -19 13 -22 8 -4 15 -13 15 -22 0 -9 11 -28 25 -43 14 -15
25 -30 25 -34 0 -15 197 -219 261 -270 19 -14 57 -34 86 -44 29 -10 53 -22 53
-26 0 -4 9 -8 20 -8 12 0 40 -10 63 -21 23 -12 53 -25 67 -30 66 -20 138 -51
162 -69 15 -11 53 -27 85 -34 32 -8 94 -25 138 -37 66 -18 110 -23 253 -25
105 -1 172 1 172 7 0 6 8 5 20 -1 11 -6 20 -7 20 -2 0 4 21 10 48 12 26 1 57
4 70 5 13 1 31 8 40 16 10 8 24 15 32 16 51 6 100 23 100 34 0 5 6 9 14 9 18
0 138 59 151 75 6 7 37 32 70 58 71 54 130 107 118 107 -4 0 4 8 20 18 15 10
24 22 20 25 -3 4 1 7 11 7 9 0 15 4 12 9 -4 5 -3 11 2 13 17 7 73 112 69 128
-2 10 4 23 14 31 11 7 19 23 19 34 0 11 7 39 15 62 8 23 17 55 20 70 2 15 8
39 11 53 11 44 19 145 19 244 0 53 4 96 8 96 4 0 3 9 -3 19 -6 12 -6 22 -1 26
5 3 -8 41 -30 85 -22 44 -40 83 -41 87 0 5 -13 27 -29 50 -16 23 -29 44 -29
48 0 7 -19 30 -42 53 -10 9 -18 20 -18 24 0 4 -12 20 -26 35 -14 15 -32 35
-40 44 -8 9 -14 21 -14 28 0 7 -4 10 -8 7 -5 -3 -15 10 -22 29 -8 19 -20 35
-27 35 -7 0 -12 3 -11 8 5 15 -134 174 -148 169 -2 -1 -20 10 -38 26 -19 15
-41 27 -49 27 -8 0 -20 7 -27 15 -7 8 -31 20 -54 27 -22 7 -56 20 -73 30 -18
10 -33 13 -33 7 0 -6 -7 -6 -20 1 -14 8 -20 8 -20 0 0 -7 -6 -8 -18 -1 -13 7
-22 7 -29 0 -6 -6 -18 2 -34 26 l-24 35 -132 0 c-91 0 -133 -4 -133 -11z"/>
</g>
</svg>
